<svg height="70" viewBox="0 0 58 58" width="80" xmlns="http://www.w3.org/2000/svg"><g id="Page-1" fill="none" fill-rule="evenodd"><g id="005---Modem" fill-rule="nonzero"><rect id="Rectangle-path" fill="#547580" height="34" rx="4" width="48" y="24"/><rect id="Rectangle-path" fill="#65ddb9" height="4" rx="1" width="4" x="10" y="50"/><rect id="Rectangle-path" fill="#65ddb9" height="4" rx="1" width="4" x="18" y="50"/><rect id="Rectangle-path" fill="#f3d55b" height="4" rx="1" width="4" x="26" y="50"/><rect id="Rectangle-path" fill="#f3d55b" height="4" rx="1" width="4" x="34" y="50"/><path id="Shape" d="m27 29h-6c-.5522847 0-1-.4477153-1-1s.4477153-1 1-1h6c.5522847 0 1 .4477153 1 1s-.4477153 1-1 1z" fill="#65ddb9"/><path id="Shape" d="m25 33h-2c-.5522847 0-1-.4477153-1-1s.4477153-1 1-1h2c.5522847 0 1 .4477153 1 1s-.4477153 1-1 1z" fill="#65ddb9"/><path id="Shape" d="m58 35.97c.0081821.2721196-.0949352.5358128-.2855434.7301953-.1906081.1943826-.4522289.3026501-.7244566.2998047h-3.98c-.2722277.0028454-.5338485-.1054221-.7244566-.2998047-.1906082-.1943825-.2937255-.4580757-.2855434-.7301953l.03-.97.16-6 .74-27.05c.0309769-1.09118134.9284049-1.95751039 2.02-1.95h.1c1.0915951-.00751039 1.9890231.85881866 2.02 1.95z" fill="#464f5d"/><path id="Shape" d="m52.19 29-.16 6h-4.03v-6z" fill="#393f4a"/><g fill="#ff5364"><path id="Shape" d="m38.78 11.55c-.3041027-.0011606-.5911531-.1406376-.78-.379-3.4099544-4.31434476-8.6067856-6.83095681-14.106-6.83095681s-10.6960456 2.51661205-14.106 6.83095681c-.34296884.4329912-.97200875.5059688-1.40499998.163-.43299124-.3429688-.50596883-.9720088-.16300002-1.405 3.7893164-4.79306754 9.5634742-7.5888016 15.6735-7.5888016s11.8841836 2.79573406 15.6735 7.5888016c.2380956.300518.2834069.7107113.1166438 1.0559513-.166763.34524-.5162374.564738-.8996438.5650487z"/><path id="Shape" d="m34.081 15.27c-.3053371.0003-.5940804-.1389155-.784-.378-2.2760964-2.8738403-5.7409976-4.5496073-9.407-4.5496073s-7.1309036 1.675767-9.407 4.5496073c-.3444984.4290725-.9709196.4992062-1.4017763.1569419-.4308568-.3422642-.5042445-.9683125-.1642237-1.4009419 2.6555096-3.3514418 6.6970331-5.30556092 10.973-5.30556092s8.3174904 1.95411912 10.973 5.30556092c.2385992.300365.2843505.7107461.1177596 1.0562836-.1665908.3455376-.5161601.5653263-.8997596.5657164z"/><path id="Shape" d="m29.371 19c-.3075914.0003188-.5982161-.1409366-.788-.383-1.1329755-1.4377572-2.8624867-2.2768415-4.693-2.2768415s-3.5600245.8390843-4.693 2.2768415c-.2204329.281168-.5741226.4233784-.9278377.373062-.3537151-.0503165-.6537178-.2855155-.787-.617s-.0795952-.708894.1408377-.990062c1.5120948-1.9213624 3.821992-3.0429278 6.267-3.0429278s4.7549052 1.1215654 6.267 3.0429278c.2359781.300982.2796158.7101985.1124142 1.0541744-.1672017.3439759-.5159542.5624574-.8984142.5628256z"/></g></g></g></svg>